<?xml version="1.0" encoding="utf-8"?>
<!-- Generator: Adobe Illustrator 22.1.0, SVG Export Plug-In . SVG Version: 6.00 Build 0)  -->
<svg version="1.1" id="Слой_1" xmlns="http://www.w3.org/2000/svg" xmlns:xlink="http://www.w3.org/1999/xlink" x="0px" y="0px"
	 viewBox="0 0 559 559" style="enable-background:new 0 0 559 559;" xml:space="preserve">
<g id="surface1">
	<path d="M521.1,265l-22.2-9.6v-15.2c0.3-93.3-58.6-176.5-146.6-207.3V11.5c0-6.4-5.2-11.5-11.5-11.5H217.5
		C211.2,0,206,5.2,206,11.5v21.5c-88.1,30.8-146.9,114-146.6,207.3v15.3l-22,9.3c-4.3,1.8-7,6-7,10.6v60.5c0,6.4,5.2,11.5,11.5,11.5
		h15v23c0,6.4,5.2,11.5,11.5,11.5h41.3c3.9,14.4,9.7,28.3,17.2,41.2l-29.3,29.3c-4.5,4.5-4.5,11.7,0,16.2l48.9,48.9
		c4.5,4.5,11.7,4.5,16.2,0l29.3-29.3c12.9,7.5,26.7,13.2,41.1,17.2v41.3c0,6.4,5.2,11.5,11.5,11.5h69.1c6.4,0,11.5-5.2,11.5-11.5
		v-41.3c14.4-3.9,28.3-9.7,41.2-17.2l29.3,29.3c4.5,4.5,11.7,4.5,16.2,0l48.9-48.9c4.5-4.5,4.5-11.7,0-16.2l-29.3-29.3
		c7.5-12.9,13.2-26.8,17.2-41.2h41.3c6.4,0,11.5-5.2,11.5-11.5v-23h15c6.4,0,11.5-5.2,11.5-11.5v-60.5
		C528.2,271,525.4,266.8,521.1,265z M228.8,23.2h100.4v192.5H229L228.8,23.2z M478.8,359.1h-38.4c-5.5-0.1-10.4,3.7-11.5,9.1
		c-3.9,18-11,35.2-21.1,50.7c-3,4.6-2.3,10.6,1.5,14.4l27.5,27.5L404,493.5L376.5,466c-3.8-3.8-9.8-4.5-14.4-1.5
		c-15.5,10.1-32.6,17.2-50.7,21.1c-5.4,1.2-9.2,6-9.1,11.5v38.8h-46.1v-39.2c0.1-5.5-3.7-10.4-9.1-11.5c-18-3.9-35.2-11-50.7-21.1
		c-4.6-3-10.6-2.3-14.4,1.5l-27.5,27.5l-32.6-32.6l27.5-27.5c3.8-3.8,4.5-9.8,1.5-14.4c-10.1-15.4-17.4-32.5-21.4-50.4
		c-1.2-5.4-6-9.2-11.5-9.1H79.7v-11.5h105.3c6.3,52,53.6,89.1,105.6,82.8c43.4-5.3,77.5-39.4,82.8-82.8h105.4L478.8,359.1z
		 M208.4,347.6h141.8c-6.3,39.2-43.2,65.8-82.4,59.5c-30.6-4.9-54.5-28.9-59.5-59.5H208.4z M505.3,324.6H53.3v-41.3l22.2-9.6
		c4.3-1.8,7-6,7-10.6v-23C82.3,159.6,131.3,87.2,206,57.5v169.7c0,6.4,5.2,11.5,11.5,11.5H341c6.4,0,11.5-5.2,11.5-11.5V57.5
		c74.9,29.7,123.9,102.2,123.6,182.8v23c0,4.6,2.8,8.8,7,10.6l22.2,9.6L505.3,324.6L505.3,324.6z"/>
</g>
</svg>
