<svg id="Capa_1" data-name="Capa 1" xmlns="http://www.w3.org/2000/svg" viewBox="0 0 512 512">
  <title>engine</title>
  <path d="M342.27,328.12a10,10,0,0,0-14.15,0,101.48,101.48,0,0,1-112.71,21.49A10,10,0,0,0,207.46,368,121.63,121.63,0,0,0,255.9,378a122.88,122.88,0,0,0,22-2,121.33,121.33,0,0,0,64.37-33.77A10,10,0,0,0,342.27,328.12Z"/>
  <path d="M184.22,328.48l-.34-.36a10.06,10.06,0,1,0,.34.36Z"/>
  <path d="M256,91C165,91,91,165,91,256s74,165,165,165,165-74,165-165S347,91,256,91ZM256,401C176,401,111,336,111,256S176,111,256,111a144.38,144.38,0,0,1,91.95,33L294.68,170a10.15,10.15,0,0,0-2.68,1.91L232,232c-.15.15-.28.3-.42.46a34,34,0,0,0,48,48c.16-.14.31-.27.46-.42l60-60a10.15,10.15,0,0,0,1.91-2.68l26.07-53.27A144.38,144.38,0,0,1,401,256C401,336,336,401,256,401ZM268,224.2l37-37,38.77-19-19,38.77-37,37A34.11,34.11,0,0,0,268,224.2Zm2,31.8a14,14,0,1,1-14-14A14,14,0,0,1,270,256Z"/>
  <path d="M502,202H470a218.45,218.45,0,0,0-24.51-59.12l22.64-22.64a10,10,0,0,0,0-14.15L405.91,43.87a10,10,0,0,0-14.15,0L369.12,66.51A218.45,218.45,0,0,0,310,42V10A10,10,0,0,0,300,0H212a10,10,0,0,0-10,10V42a218.45,218.45,0,0,0-59.12,24.51L120.24,43.87a10,10,0,0,0-14.15,0L43.87,106.09a10,10,0,0,0,0,14.15l22.64,22.64A218.77,218.77,0,0,0,42,202H10A10,10,0,0,0,0,212v88a10,10,0,0,0,10,10H42a218.45,218.45,0,0,0,24.51,59.12L43.87,391.76a10,10,0,0,0,0,14.15l62.22,62.22a10,10,0,0,0,14.15,0l22.64-22.64A218.45,218.45,0,0,0,202,470v32a10,10,0,0,0,10,10h88a10,10,0,0,0,10-10V470a218.45,218.45,0,0,0,59.12-24.51l22.65,22.64a10,10,0,0,0,14.14,0l62.22-62.22a10,10,0,0,0,0-14.15l-22.64-22.64A218.45,218.45,0,0,0,470,310h32a10,10,0,0,0,10-10V212A10,10,0,0,0,502,202Zm-10,88H462.05a10,10,0,0,0-9.78,7.92,198.94,198.94,0,0,1-27.86,67.21,10,10,0,0,0,1.32,12.52l21.19,21.18-48.08,48.09-21.19-21.19a10,10,0,0,0-12.52-1.32,198.85,198.85,0,0,1-67.21,27.86,10,10,0,0,0-7.92,9.78V492H222V462.05a10,10,0,0,0-7.92-9.78,198.94,198.94,0,0,1-67.21-27.86,10,10,0,0,0-12.52,1.32l-21.18,21.19L65.08,398.84l21.19-21.19a10,10,0,0,0,1.32-12.52,198.85,198.85,0,0,1-27.86-67.21A10,10,0,0,0,50,290H20V222H50a10,10,0,0,0,9.78-7.92,198.94,198.94,0,0,1,27.86-67.21,10,10,0,0,0-1.32-12.52L65.08,113.17l48.08-48.09,21.19,21.19a10,10,0,0,0,12.52,1.32,198.94,198.94,0,0,1,67.21-27.86A10,10,0,0,0,222,50V20h68V50a10,10,0,0,0,7.92,9.78,199.12,199.12,0,0,1,67.21,27.85,10,10,0,0,0,12.52-1.31l21.18-21.19,48.09,48.08-21.19,21.19a10,10,0,0,0-1.32,12.52,198.94,198.94,0,0,1,27.86,67.21,10,10,0,0,0,9.78,7.92H492Z"/>
  <path d="M145,246h-8a10,10,0,0,0,0,20h8a10,10,0,0,0,0-20Z"/>
  <path d="M184.79,170.65l-5.86-5.87a10,10,0,0,0-14.15,14.15l5.87,5.86a10,10,0,0,0,14.14-14.14Z"/>
  <path d="M256,127a10,10,0,0,0-10,10v5.73a10,10,0,1,0,20,0V137A10,10,0,0,0,256,127Z"/>
  <path d="M375,246h-5.73a10,10,0,0,0,0,20H375a10,10,0,0,0,0-20Z"/>
</svg>
