<?xml version="1.0" encoding="utf-8"?>
<!-- Generator: Adobe Illustrator 22.1.0, SVG Export Plug-In . SVG Version: 6.00 Build 0)  -->
<svg version="1.1" id="Layer_1" xmlns="http://www.w3.org/2000/svg" xmlns:xlink="http://www.w3.org/1999/xlink" x="0px" y="0px"
	 viewBox="0 0 512 512" style="enable-background:new 0 0 512 512;" xml:space="preserve">
<style type="text/css">
	.st0{fill:#0B0B2E;}
</style>
<g>
	<g>
		<g>
			<g>
				<path class="st0" d="M490.1,178.6l-42.9-8.6c-2.8-9-6.5-17.8-10.9-26.2l24.3-36.4c7.2-10.7,5.7-25.2-3.4-34.3l-18.4-18.4
					c-9.1-9.1-23.6-10.6-34.3-3.4l-36.4,24.3c-8.4-4.4-17.2-8-26.2-10.9l-8.6-42.9C330.9,9.2,319.6,0,306.7,0h-26
					c-12.9,0-24.1,9.2-26.7,21.9l-8.6,42.9c-9,2.8-17.8,6.5-26.2,10.9l-36.4-24.3c-10.7-7.2-25.2-5.7-34.3,3.4l-18.4,18.4
					c-9.1,9.1-10.6,23.6-3.4,34.3l24.3,36.4c-4.4,8.4-8,17.2-10.9,26.2l-42.9,8.6c-12.7,2.5-21.9,13.7-21.9,26.7v26
					c0,12.9,9.2,24.1,21.9,26.7l27.8,5.5c4.4,0.9,8.6-2,9.5-6.3c0.9-4.4-2-8.6-6.3-9.5l-27.8-5.6c-5.1-1-8.9-5.6-8.9-10.8v-26
					c0-5.2,3.7-9.8,8.9-10.8l47.6-9.5c3-0.6,5.4-2.8,6.2-5.8c3.1-11.1,7.5-21.8,13.2-31.8c1.5-2.7,1.4-5.9-0.3-8.5l-27-40.4
					c-2.9-4.4-2.3-10.2,1.4-13.9L160,66.2c3.7-3.7,9.6-4.3,13.9-1.4l40.4,27c2.5,1.7,5.8,1.8,8.5,0.3c10-5.6,20.7-10.1,31.8-13.2
					c2.9-0.8,5.2-3.2,5.8-6.2l9.5-47.6c1-5.1,5.6-8.9,10.8-8.9h26c5.2,0,9.8,3.7,10.8,8.9l9.5,47.6c0.6,3,2.8,5.4,5.8,6.2
					c11.1,3.1,21.8,7.5,31.8,13.2c2.7,1.5,5.9,1.4,8.5-0.3l40.4-27c4.4-2.9,10.2-2.3,13.9,1.4l18.4,18.4c3.7,3.7,4.3,9.6,1.4,13.9
					l-27,40.4c-1.7,2.5-1.8,5.8-0.3,8.5c5.6,10,10.1,20.7,13.2,31.8c0.8,2.9,3.2,5.2,6.2,5.8l47.6,9.5c5.1,1,8.9,5.6,8.9,10.8v26
					c0,5.2-3.7,9.8-8.9,10.8l-47.6,9.5c-3,0.6-5.4,2.8-6.2,5.7c-3.1,11.1-7.5,21.8-13.2,31.8c-1.5,2.7-1.4,5.9,0.3,8.5l27,40.4
					c2.9,4.4,2.3,10.2-1.4,13.9l-18.4,18.4c-3.7,3.7-9.6,4.3-13.9,1.4l-40.4-27c-3.7-2.5-8.7-1.5-11.2,2.2
					c-2.5,3.7-1.5,8.7,2.2,11.2l40.4,27c4.6,3.1,9.8,4.5,15.1,4.5c7,0,14-2.7,19.3-7.9l18.4-18.4c9.1-9.1,10.6-23.6,3.4-34.3
					l-24.3-36.4c4.4-8.4,8-17.2,10.9-26.2l42.9-8.6c12.7-2.5,21.9-13.7,21.9-26.7v-26C512,192.4,502.8,181.1,490.1,178.6z"/>
				<path class="st0" d="M320.7,280.3h-75.5c-4.5,0-8.1,3.6-8.1,8.1c0,4.5,3.6,8.1,8.1,8.1h75.5c7.4,0,13.5,6,13.5,13.5v10.8
					c0,7.4-6,13.5-13.5,13.5h-75.5c-4.5,0-8.1,3.6-8.1,8.1c0,4.5,3.6,8.1,8.1,8.1h75.5c7.4,0,13.5,6,13.5,13.5v10.8
					c0,7.4-6,13.5-13.5,13.5h-75.5c-4.5,0-8.1,3.6-8.1,8.1c0,4.5,3.6,8.1,8.1,8.1h75.5c7.4,0,13.5,6,13.5,13.5v10.8
					c0,7.4-6,13.5-13.5,13.5h-75.5c-4.5,0-8.1,3.6-8.1,8.1c0,4.5,3.6,8.1,8.1,8.1h75.5c7.4,0,13.5,6,13.5,13.5v10.8
					c0,7.4-6,13.5-13.5,13.5H174.2c-7.6,0-14.8-3-20.3-8.4c-8.6-8.5-19.8-13.2-31.8-13.2h-19.8v-88.9c0-4.5-3.6-8.1-8.1-8.1
					s-8.1,3.6-8.1,8.1v107.8c0,1.5-1.2,2.7-2.7,2.7H59.3V385.3c0-4.5-3.6-8.1-8.1-8.1s-8.1,3.6-8.1,8.1v110.5H18.9
					c-1.5,0-2.7-1.2-2.7-2.7V309.9c0-1.5,1.2-2.7,2.7-2.7h64.7c1.5,0,2.7,1.2,2.7,2.7V353c0,4.5,3.6,8.1,8.1,8.1s8.1-3.6,8.1-8.1
					v-24.3h19.5c12.8,0,24.1-8.1,28.1-20.3l3-9c9.3-28,14.1-57.1,14.1-86.6c0-7.4,6-13.5,13.5-13.5c6.5,0,12.6,2.5,17.1,7.1
					s7.1,10.7,7.1,17.1v86.2c0,4.5,3.6,8.1,8.1,8.1c4.5,0,8.1-3.6,8.1-8.1v-86.2c0-10.8-4.2-20.9-11.8-28.6
					c-7.6-7.6-17.8-11.8-28.6-11.8c-16.3,0-29.6,13.3-29.6,29.6c0,27.7-4.4,55.1-13.2,81.5l-3,9c-1.8,5.5-7,9.2-12.8,9.2h-19.5v-2.7
					c0-10.4-8.5-18.9-18.9-18.9H18.9C8.5,291,0,299.5,0,309.9v183.2C0,503.5,8.5,512,18.9,512h64.7c10.4,0,18.9-8.5,18.9-18.9v-2.7
					h19.8c7.6,0,14.9,3,20.4,8.5c8.5,8.4,19.7,13.1,31.7,13.1h146.4c16.3,0,29.6-13.3,29.6-29.6v-10.8c0-8.5-3.6-16.1-9.3-21.6
					c5.7-5.4,9.3-13.1,9.3-21.6v-10.8c0-8.5-3.6-16.1-9.3-21.6c5.7-5.4,9.3-13.1,9.3-21.6v-10.8c0-8.5-3.6-16.1-9.3-21.6
					c5.7-5.4,9.3-13.1,9.3-21.6v-10.8C350.3,293.6,337,280.3,320.7,280.3z"/>
				<path class="st0" d="M293.7,259.8c2.1,0,4.3-0.2,6.4-0.5c22.6-3.5,38.1-24.8,34.6-47.4c-3.5-22.6-24.8-38.1-47.4-34.6
					c-22.6,3.5-38.1,24.8-34.6,47.4C255.9,245.1,273.6,259.8,293.7,259.8z M289.8,193.2c13.8-2.1,26.8,7.3,28.9,21.1
					c2.2,13.8-7.3,26.8-21.1,28.9c-13.8,2.2-26.8-7.3-28.9-21.1C266.5,208.4,276,195.4,289.8,193.2z"/>
				<path class="st0" d="M366.8,296.4c2.1,0,4.3-0.8,5.8-2.5c23.8-24.9,34.4-58.6,29.1-92.5c-2.7-17.2-9.2-33.1-19.4-47.2
					c-2.6-3.6-7.7-4.4-11.3-1.8c-3.6,2.6-4.4,7.7-1.8,11.3c8.7,12,14.2,25.5,16.5,40.2c4.5,28.9-4.5,57.7-24.8,78.8
					c-3.1,3.2-3,8.3,0.3,11.4C362.8,295.7,364.8,296.4,366.8,296.4z"/>
				<path class="st0" d="M361.1,142.3c2.7-3.6,2-8.6-1.6-11.3c-23.8-18-53.2-25.3-82.7-20.7c-33.8,5.3-62.7,25.6-79.1,55.6
					c-2.1,3.9-0.7,8.8,3.2,11c1.2,0.7,2.6,1,3.9,1c2.9,0,5.6-1.5,7.1-4.2c14-25.6,38.6-42.9,67.4-47.4c25.1-3.9,50.2,2.4,70.5,17.7
					C353.4,146.6,358.5,145.9,361.1,142.3z"/>
			</g>
		</g>
	</g>
</g>
</svg>
