<?xml version="1.0" encoding="utf-8"?>
<!-- Generator: Adobe Illustrator 22.1.0, SVG Export Plug-In . SVG Version: 6.00 Build 0)  -->
<svg version="1.1" id="Capa_1" xmlns="http://www.w3.org/2000/svg" xmlns:xlink="http://www.w3.org/1999/xlink" x="0px" y="0px"
	 viewBox="0 0 512 512" style="enable-background:new 0 0 512 512;" xml:space="preserve">
<g>
	<g>
		<path d="M474,379.7l-63.4-65.6c-0.1-0.1-0.1-0.1-0.2-0.2c-17.6-17.6-46-17.6-63.6,0l-28.9,28.9c-13.3,13.3-34.9,13.3-48.2,0
			c0,0,0,0,0,0L169,244.7c-13.3-13.3-13.3-34.9,0-48.2l28.9-28.9c17.5-17.5,17.5-46.1,0-63.6l-63.6-63.6
			c-17.5-17.5-46.1-17.5-63.6,0c0,0-21.2,21.2-21.2,21.2c0,0-1.9,1.9-1.9,1.9c-63.4,63.4-63.4,166,0,229.5l173.9,171.5
			c63.3,63.3,165.7,63.5,229.2,0.2c0.3-0.3,22.8-21,23.2-21.4C491.4,425.8,491.4,397.3,474,379.7z M91.9,61.5
			c5.8-5.8,15.4-5.8,21.2,0l63.6,63.6c5.9,5.9,5.9,15.3,0,21.2L166.2,157L81.3,72.1L91.9,61.5z M242.7,443.2L68.8,271.7
			c-49-49-51.3-126.3-8.3-178l84.5,84.5c-22.1,25.1-21.2,63.6,2.8,87.7l100.6,98.2c24,24,62.4,25,87.6,2.8l84.5,84.5
			C368.4,494.9,291.6,492.2,242.7,443.2z M452.8,421.9l-10.1,9.3l-85.4-85.4l10.6-10.6c5.8-5.8,15.3-5.9,21.1-0.1
			c0.1,0.1,63.4,65.6,63.5,65.7C458.4,406.6,458.5,416,452.8,421.9z"/>
	</g>
</g>
<g>
	<g>
		<path d="M257,0c-8.3,0-15,6.7-15,15s6.7,15,15,15c124.1,0,225,100.9,225,225c0,8.3,6.7,15,15,15s15-6.7,15-15
			C512,114.1,398,0,257,0z"/>
	</g>
</g>
<g>
	<g>
		<path d="M257,60c-8.3,0-15,6.7-15,15s6.7,15,15,15c91,0,165,74,165,165c0,8.3,6.7,15,15,15s15-6.7,15-15
			C452,147.5,364.5,60,257,60z"/>
	</g>
</g>
<g>
	<g>
		<path d="M257,120c-8.3,0-15,6.7-15,15s6.7,15,15,15c57.9,0,105,47.1,105,105c0,8.3,6.7,15,15,15s15-6.7,15-15
			C392,180.6,331.5,120,257,120z"/>
	</g>
</g>
<g>
	<g>
		<path d="M257,180c-8.3,0-15,6.7-15,15s6.7,15,15,15c24.8,0,45,20.2,45,45c0,8.3,6.7,15,15,15s15-6.7,15-15
			C332,213.6,298.4,180,257,180z"/>
	</g>
</g>
</svg>
